<?xml version="1.0" standalone="no"?>
<!DOCTYPE svg PUBLIC "-//W3C//DTD SVG 20010904//EN"
 "http://www.w3.org/TR/2001/REC-SVG-20010904/DTD/svg10.dtd">
<svg version="1.0" xmlns="http://www.w3.org/2000/svg"
 width="72.000000pt" height="72.000000pt" viewBox="0 0 72.000000 72.000000"
 preserveAspectRatio="xMidYMid meet">
<metadata>
Created by potrace 1.14, written by Peter Selinger 2001-2017
</metadata>
<g transform="translate(0.000000,72.000000) scale(0.100000,-0.100000)"
fill="#000000" stroke="none">
<path d="M253 701 c-93 -32 -166 -90 -205 -165 -58 -111 -61 -226 -8 -332 39
-80 89 -128 170 -167 57 -28 75 -31 150 -31 71 0 95 4 142 26 79 36 142 99
181 177 29 59 32 75 32 151 -1 150 -67 255 -202 321 -77 39 -180 46 -260 20z"/>
</g>
</svg>
